<svg aria-hidden="true" style="position: absolute; width: 0; height: 0; overflow: hidden;" version="1.1" xmlns="http://www.w3.org/2000/svg" xmlns:xlink="http://www.w3.org/1999/xlink">
<defs>
<symbol id="icon-youtube-pink" viewBox="0 0 32 32">
<path fill="#8d86c9" style="fill: var(--color1, #8d86c9)" d="M28.773 9.893c-0.151-0.542-0.444-1.022-0.853-1.413-0.418-0.391-0.933-0.676-1.484-0.818-2.089-0.551-10.444-0.551-10.444-0.551-3.484-0.044-6.969 0.133-10.436 0.516-0.551 0.16-1.067 0.444-1.484 0.844-0.409 0.4-0.711 0.889-0.862 1.422-0.373 2.009-0.56 4.053-0.542 6.107-0.018 2.044 0.169 4.080 0.542 6.098 0.151 0.533 0.444 1.022 0.862 1.413 0.409 0.391 0.924 0.676 1.484 0.827 2.116 0.542 10.436 0.542 10.436 0.542 3.484 0.044 6.978-0.133 10.444-0.516 0.551-0.151 1.067-0.436 1.484-0.827 0.409-0.391 0.702-0.88 0.853-1.413 0.382-2.009 0.569-4.053 0.551-6.107 0.027-2.053-0.16-4.107-0.551-6.124v0zM13.333 19.796v-7.6l6.951 3.804-6.951 3.796z"></path>
</symbol>
<symbol id="icon-vk-pink" viewBox="0 0 32 32">
<path fill="#8d86c9" style="fill: var(--color1, #8d86c9)" d="M29.289 9.173c0.222 0.613-0.471 2.044-2.089 4.293-0.231 0.302-0.524 0.711-0.88 1.227-0.738 0.951-1.164 1.582-1.262 1.884-0.16 0.409-0.098 0.8 0.196 1.173 0.16 0.204 0.533 0.613 1.12 1.227h0.044v0.053c1.333 1.262 2.222 2.329 2.676 3.218l0.098 0.204 0.098 0.382v0.48l-0.338 0.382-0.827 0.187-3.547 0.098c-0.231 0.036-0.498 0-0.809-0.098-0.302-0.107-0.542-0.204-0.702-0.311l-0.293-0.204c-0.284-0.204-0.613-0.507-0.969-0.916s-0.676-0.782-0.951-1.129c-0.267-0.338-0.551-0.622-0.844-0.836-0.293-0.222-0.551-0.302-0.782-0.231-0.027 0-0.071 0.018-0.116 0.044-0.053 0.036-0.133 0.116-0.249 0.231-0.107 0.124-0.204 0.267-0.284 0.436-0.089 0.169-0.16 0.418-0.222 0.738-0.062 0.329-0.098 0.711-0.098 1.156 0 0.133-0.018 0.258-0.044 0.382-0.036 0.116-0.071 0.213-0.098 0.276l-0.053 0.053c-0.196 0.204-0.453 0.311-0.773 0.311h-1.556c-0.684 0.062-1.369 0-2.062-0.204-0.702-0.204-1.307-0.471-1.822-0.791-0.524-0.329-0.996-0.649-1.413-0.978-0.418-0.32-0.747-0.604-0.969-0.836l-0.347-0.364c-0.089-0.062-0.222-0.204-0.382-0.409-0.16-0.196-0.498-0.64-0.996-1.324-0.507-0.676-0.996-1.413-1.484-2.196s-1.049-1.813-1.698-3.084c-0.649-1.28-1.253-2.596-1.804-3.964-0.062-0.169-0.089-0.302-0.089-0.4 0-0.107 0.009-0.196 0.044-0.258l0.044-0.053c0.133-0.204 0.391-0.302 0.782-0.302h3.84c0.098 0 0.196 0.018 0.284 0.071l0.249 0.133 0.044 0.044c0.169 0.107 0.276 0.258 0.347 0.462 0.187 0.48 0.409 0.978 0.649 1.502 0.249 0.533 0.436 0.933 0.56 1.2l0.196 0.409c0.293 0.578 0.56 1.084 0.8 1.511 0.249 0.427 0.462 0.756 0.658 0.996s0.391 0.427 0.587 0.56c0.187 0.133 0.356 0.204 0.48 0.204 0.133 0 0.258-0.018 0.391-0.053l0.044-0.071 0.178-0.338 0.187-0.658 0.124-1.173v-1.84c-0.027-0.373-0.080-0.729-0.142-1.049-0.071-0.32-0.133-0.551-0.196-0.693l-0.053-0.151c-0.222-0.338-0.631-0.56-1.209-0.658-0.098 0-0.071-0.124 0.098-0.364 0.16-0.169 0.338-0.302 0.533-0.409 0.48-0.267 1.582-0.391 3.298-0.356 0.747 0 1.378 0.071 1.902 0.204 0.16 0.036 0.302 0.098 0.436 0.178 0.124 0.089 0.222 0.204 0.293 0.356 0.062 0.16 0.107 0.311 0.142 0.462s0.053 0.373 0.053 0.667v0.791c-0.036 0.267-0.053 0.613-0.053 1.022v1.227c0 0.098-0.009 0.302-0.027 0.613-0.009 0.302-0.018 0.542-0.018 0.711s0.009 0.364 0.044 0.587c0.036 0.222 0.089 0.409 0.169 0.56s0.187 0.267 0.32 0.338c0.062 0.027 0.133 0.053 0.213 0.071s0.204-0.036 0.364-0.151c0.169-0.124 0.347-0.293 0.533-0.516 0.196-0.213 0.444-0.551 0.729-0.996 0.293-0.436 0.604-0.951 0.924-1.529 0.551-1.022 1.058-2.124 1.511-3.316 0.027-0.071 0.071-0.151 0.116-0.231 0.053-0.089 0.107-0.142 0.178-0.178h0.044l0.044-0.053 0.196-0.053h0.293l3.982-0.044c0.356-0.036 0.658-0.018 0.898 0.044 0.249 0.071 0.382 0.16 0.418 0.258l0.098 0.151z"></path>
</symbol>
<symbol id="icon-arrow-left" viewBox="0 0 32 32">
<path fill="#fff" style="fill: var(--color2, #fff)" d="M24 16c0 0.258-0.114 0.516-0.299 0.702s-0.444 0.289-0.702 0.289h-11.592l4.294 4.294c0.093 0.093 0.165 0.206 0.217 0.33 0.052 0.114 0.083 0.248 0.083 0.382 0 0.124-0.031 0.258-0.083 0.382s-0.124 0.227-0.217 0.32c-0.093 0.093-0.196 0.165-0.32 0.217s-0.258 0.083-0.382 0.083c-0.134 0-0.268-0.031-0.392-0.083-0.114-0.052-0.227-0.124-0.32-0.217l-5.997-5.997c-0.093-0.093-0.165-0.206-0.217-0.32-0.052-0.124-0.083-0.258-0.083-0.382 0-0.134 0.031-0.268 0.083-0.392 0.052-0.114 0.124-0.227 0.217-0.32l5.997-5.997c0.186-0.196 0.444-0.299 0.712-0.299 0.258 0 0.516 0.103 0.702 0.299 0.186 0.186 0.299 0.444 0.299 0.702 0 0.268-0.114 0.526-0.299 0.712l-4.294 4.294h11.592c0.258 0 0.516 0.103 0.702 0.289s0.299 0.444 0.299 0.712z"></path>
</symbol>
<symbol id="icon-arrow-right" viewBox="0 0 32 32">
<path fill="#fff" style="fill: var(--color2, #fff)" d="M8 16c0 0.258 0.103 0.516 0.289 0.702s0.444 0.289 0.702 0.289h11.592l-4.294 4.294c-0.093 0.093-0.165 0.206-0.217 0.33-0.052 0.114-0.083 0.248-0.083 0.382 0 0.124 0.031 0.258 0.083 0.382s0.124 0.227 0.217 0.32c0.093 0.093 0.206 0.165 0.32 0.217 0.124 0.052 0.258 0.083 0.382 0.083 0.134 0 0.268-0.031 0.392-0.083 0.114-0.052 0.227-0.124 0.32-0.217l5.997-5.997c0.093-0.093 0.165-0.206 0.217-0.32 0.052-0.124 0.083-0.258 0.083-0.382 0-0.134-0.031-0.268-0.083-0.392-0.052-0.114-0.124-0.227-0.217-0.32l-5.997-5.997c-0.186-0.196-0.444-0.299-0.712-0.299-0.258 0-0.516 0.103-0.702 0.299-0.186 0.186-0.299 0.444-0.299 0.702 0 0.268 0.114 0.526 0.299 0.712l4.294 4.294h-11.592c-0.258 0-0.516 0.103-0.702 0.289s-0.289 0.444-0.289 0.712z"></path>
</symbol>
<symbol id="icon-link" viewBox="0 0 32 32">
<path fill="#fff" style="fill: var(--color2, #fff)" d="M22.667 26.667h-14.667c-0.715 0-1.387-0.288-1.888-0.789s-0.779-1.173-0.779-1.877v-14.667c0-0.715 0.277-1.387 0.779-1.888s1.173-0.779 1.888-0.779h5.333v2.667h-5.333v14.667h14.667v-5.333h2.667v5.333c0 0.704-0.288 1.376-0.789 1.877s-1.173 0.789-1.877 0.789zM15.595 18.272l-1.877-1.888 8.384-8.384h-4.768v-2.667h9.333v9.333h-2.667v-4.789l-8.405 8.395z"></path>
</symbol>
<symbol id="icon-video" viewBox="0 0 32 32">
<path fill="none" stroke="#fff" style="stroke: var(--color2, #fff)" stroke-linejoin="miter" stroke-linecap="butt" stroke-miterlimit="4" stroke-width="0.4" d="M31.8 16c0 8.726-7.074 15.8-15.8 15.8s-15.8-7.074-15.8-15.8c0-8.726 7.074-15.8 15.8-15.8s15.8 7.074 15.8 15.8z"></path>
<path fill="#8d86c9" style="fill: var(--color1, #8d86c9)" d="M28.8 16c0 7.069-5.731 12.8-12.8 12.8s-12.8-5.731-12.8-12.8c0-7.069 5.731-12.8 12.8-12.8s12.8 5.731 12.8 12.8z"></path>
<path fill="#fff" style="fill: var(--color2, #fff)" d="M19.2 16l-6.4 4v-8l6.4 4z"></path>
</symbol>
<symbol id="icon-Logo" viewBox="0 0 106 32">
<path fill="#fff" style="fill: var(--color1, #fff)" d="M0 10.303l1.537-7.826h16.195l-1.44 7.826h-3.903l-2.664 13.572c-0.035 0.132-0.049 0.271-0.049 0.424 0 0.341 0.070 0.981 0.57 0.981 0.765 0 1.51-0.515 2.143-0.821l-1.767 6.998c-1.301 0.292-2.609 0.543-3.965 0.543-3.263 0-6.421-0.911-6.421-4.278 0-0.070 0-0.146 0.021-0.216l3.388-17.203h-3.645z"></path>
<path fill="#fff" style="fill: var(--color1, #fff)" d="M36.647 16.779l-13.134 7.708c0.821 0.737 1.704 1.384 2.929 1.384 3.325 0 5.802-2.803 7.854-4.793l-1.558 7.93c-2.901 1.857-6.546 2.894-10.115 2.894-5.718 0-9.628-4.23-9.628-9.155 0-6.72 7.45-13.6 15.033-13.6 2.497 0 4.87 1.085 6.463 2.776 1.37 1.461 2.038 2.991 2.157 4.856zM34.351 31.457l4.334-22.045h8.723c-0.035 0.41-0.070 0.821-0.070 1.217 0 0.376 0.104 0.737 0.216 1.092 1.419-1.412 3.402-2.581 5.579-2.581 3.137 0 5.962 2.038 5.962 4.946 0 0.355-0.035 0.717-0.097 1.064l-3.221 16.306h-8.925l2.713-13.746c0.021-0.132 0.035-0.257 0.035-0.39 0-0.793-0.744-1.377-1.621-1.377-0.953 0-1.586 0.696-1.746 1.489l-2.88 14.024h-9.002zM56.821 31.457l4.341-22.045h8.737v0.515c0 0.73 0.146 1.336 0.605 1.948 0.508-0.584 1.078-1.134 1.802-1.523 1.572-0.821 3.569-1.21 5.377-1.21 0.73 0 1.357 0.181 2.017 0.459 0.55 1.419 1.44 2.511 2.546 3.624l-3.59 18.233h-9.071l2.685-13.586c0.035-0.181 0.042-0.362 0.042-0.55 0-0.786-0.459-1.489-1.433-1.489-1.009 0-1.656 0.807-1.816 1.621l-2.769 14.003h-9.475zM79.736 31.457l3.471-17.614c1.551 1.176 2.95 1.732 5.002 1.732 1.197 0 2.351-0.243 3.499-0.515l-3.221 16.397h-8.751z"></path>
<path fill="#fff" style="fill: var(--color1, #fff)" d="M83.854 13.217c0.877-0.223 1.753-0.438 2.678-0.438 1.635 0 3.117 0.758 4.515 1.433-0.89 0.25-1.809 0.522-2.748 0.522-1.677 0-3.11-0.647-4.445-1.517zM81.593 11.089c-0.751-1.162-1.447-2.365-1.447-3.743 0-2.010 1.197-3.562 2.657-4.981 2.616 1.753 5.148 2.797 8.473 2.797 1.551 0 3.047-0.383 4.515-0.8 0.536 0.953 1.064 1.948 1.064 3.033 0 2.052-1.176 3.736-2.692 5.197-2.247-1.343-4.64-2.49-7.423-2.49-1.781 0-3.478 0.487-5.148 0.988zM85.51 0.73c1.050-0.39 2.094-0.73 3.235-0.73 2.017 0 3.659 0.536 5.155 1.753-0.911 0.403-1.837 0.751-2.873 0.751-2.066 0-3.889-0.668-5.517-1.774zM89.614 30.637l1.489-7.527c0.598 0.57 2.136 2.205 3.172 2.205 0.786 0 0.925-1.134 0.925-1.635 0-0.765-0.195-1.468-0.717-2.101-1.155-1.377-2.637-2.602-2.637-4.452 0-0.751 0.181-1.496 0.376-2.219 2.637-1.037 4.083-2.72 4.89-5.148h9.322l-1.315 6.678c-0.64-0.605-1.391-1.308-2.386-1.308-0.877 0-1.523 0.87-1.523 1.579 0 1.106 0.612 2.337 1.412 3.165l1.447 1.489c0.696 0.717 1.030 1.663 1.030 2.602 0 1.767-1.134 3.45-2.421 4.717-2.191 2.143-4.403 2.824-7.659 2.824-1.871 0-3.624-0.369-5.405-0.87z"></path>
<path fill="#fff" style="fill: var(--color1, #fff)" d="M21.551 20.932c2.289-0.591 5.781-3.423 6.282-5.517-0.39-0.083-0.786-0.167-1.19-0.167-2.31 0-5.245 2.4-5.245 4.501 0 0.397 0.070 0.8 0.153 1.183z"></path>
</symbol>
<symbol id="icon-telegram-pink" viewBox="0 0 32 32">
<path fill="#8d86c9" style="fill: var(--color1, #8d86c9)" d="M23.68 8.978l-15.742 5.796c-1.076 0.409-1.067 0.978-0.196 1.236l4.044 1.2 9.351-5.627c0.444-0.258 0.844-0.116 0.516 0.16l-7.582 6.524-0.276 3.982c0.409 0 0.587-0.178 0.818-0.391l1.964-1.822 4.080 2.88c0.756 0.391 1.298 0.187 1.484-0.667l2.684-12.053c0.267-1.049-0.427-1.529-1.147-1.218z"></path>
</symbol>
<symbol id="icon-vk" viewBox="0 0 32 32">
<path fill="#fff" style="fill: var(--color2, #fff)" d="M26.631 10.693c0.178 0.471-0.382 1.582-1.671 3.333-0.187 0.24-0.418 0.56-0.702 0.951-0.596 0.747-0.933 1.236-1.013 1.476-0.124 0.311-0.071 0.622 0.16 0.907 0.124 0.16 0.427 0.48 0.889 0.96h0.044v0.036c1.058 0.978 1.769 1.813 2.133 2.498l0.080 0.16 0.080 0.302v0.373l-0.276 0.302-0.658 0.133-2.836 0.080c-0.187 0.027-0.4 0-0.649-0.080-0.24-0.071-0.427-0.151-0.56-0.231l-0.231-0.16c-0.231-0.16-0.498-0.4-0.782-0.72-0.284-0.311-0.533-0.604-0.756-0.871s-0.444-0.48-0.676-0.658c-0.24-0.169-0.444-0.231-0.622-0.178-0.027 0-0.062 0.018-0.098 0.044-0.044 0.027-0.107 0.080-0.196 0.178-0.089 0.089-0.169 0.204-0.231 0.338-0.071 0.133-0.124 0.32-0.178 0.578-0.053 0.249-0.080 0.542-0.080 0.889 0 0.107-0.009 0.204-0.036 0.302-0.027 0.089-0.053 0.16-0.080 0.213l-0.036 0.044c-0.16 0.16-0.364 0.231-0.622 0.231h-1.244c-0.542 0.053-1.093 0-1.653-0.151-0.56-0.16-1.040-0.364-1.458-0.622-0.418-0.249-0.791-0.498-1.129-0.756-0.338-0.249-0.596-0.462-0.773-0.649l-0.276-0.284c-0.080-0.053-0.178-0.151-0.311-0.311-0.124-0.16-0.391-0.507-0.8-1.031-0.4-0.533-0.791-1.102-1.182-1.716-0.391-0.604-0.844-1.404-1.36-2.4s-0.996-2.018-1.44-3.076c-0.053-0.133-0.071-0.24-0.071-0.32s0.009-0.142 0.036-0.196l0.036-0.044c0.107-0.16 0.311-0.231 0.622-0.231h3.076c0.071 0 0.151 0.018 0.231 0.053l0.196 0.098 0.036 0.044c0.133 0.080 0.222 0.196 0.276 0.356 0.151 0.373 0.329 0.764 0.524 1.173s0.338 0.72 0.444 0.933l0.16 0.32c0.231 0.444 0.444 0.836 0.64 1.164 0.196 0.338 0.364 0.596 0.524 0.782 0.151 0.178 0.311 0.329 0.462 0.436 0.16 0.107 0.284 0.16 0.391 0.16s0.204-0.018 0.311-0.044l0.036-0.062 0.142-0.258 0.151-0.516 0.098-0.907v-1.431c-0.027-0.293-0.062-0.569-0.116-0.818s-0.107-0.427-0.16-0.533l-0.036-0.124c-0.178-0.258-0.507-0.436-0.969-0.516-0.080 0-0.053-0.089 0.071-0.276 0.133-0.133 0.276-0.24 0.436-0.32 0.382-0.213 1.262-0.302 2.64-0.276 0.596 0 1.102 0.053 1.511 0.16 0.133 0.027 0.249 0.071 0.356 0.142 0.098 0.062 0.178 0.151 0.231 0.276 0.053 0.116 0.089 0.24 0.116 0.356s0.044 0.293 0.044 0.516v0.613c-0.027 0.213-0.044 0.48-0.044 0.8v0.951c0 0.080-0.009 0.24-0.018 0.48-0.009 0.231-0.018 0.418-0.018 0.551s0.009 0.284 0.036 0.453c0.027 0.178 0.071 0.32 0.133 0.444 0.071 0.116 0.151 0.204 0.258 0.258 0.053 0.027 0.107 0.044 0.178 0.053 0.062 0.018 0.16-0.027 0.284-0.116 0.133-0.098 0.276-0.222 0.427-0.4 0.16-0.169 0.356-0.427 0.587-0.773s0.48-0.738 0.738-1.191c0.444-0.791 0.844-1.653 1.209-2.578 0.027-0.053 0.053-0.116 0.098-0.178 0.036-0.071 0.080-0.116 0.133-0.142h0.036l0.044-0.044 0.151-0.036h0.231l3.191-0.036c0.284-0.027 0.524-0.018 0.72 0.036s0.302 0.116 0.329 0.196l0.080 0.124z"></path>
</symbol>
<symbol id="icon-youtube" viewBox="0 0 32 32">
<path fill="#fff" style="fill: var(--color2, #fff)" d="M28.258 10.133c-0.142-0.516-0.427-0.978-0.818-1.351-0.4-0.382-0.889-0.649-1.422-0.791-2.009-0.524-10.027-0.524-10.027-0.524-3.351-0.044-6.693 0.124-10.018 0.498-0.533 0.151-1.022 0.427-1.422 0.809s-0.684 0.853-0.836 1.36c-0.356 1.938-0.533 3.893-0.516 5.867-0.018 1.956 0.16 3.92 0.516 5.858 0.151 0.507 0.436 0.978 0.827 1.351 0.4 0.373 0.889 0.649 1.431 0.791 2.036 0.524 10.018 0.524 10.018 0.524 3.351 0.044 6.693-0.124 10.027-0.498 0.533-0.142 1.022-0.409 1.422-0.791 0.4-0.373 0.676-0.844 0.818-1.351 0.373-1.938 0.551-3.902 0.533-5.867 0.027-1.973-0.151-3.947-0.533-5.884v0zM13.44 19.644v-7.298l6.676 3.653-6.676 3.644z"></path>
</symbol>
</defs>
</svg>
